<svg xmlns="http://www.w3.org/2000/svg" viewBox="0 0 26 26"><g id="Layer_2" data-name="Layer 2"><g id="Layer_1-2" data-name="Layer 1"><path d="M13,26A13,13,0,1,1,26,13,13,13,0,0,1,13,26ZM13,2A11,11,0,1,0,24,13,11,11,0,0,0,13,2Z"/><path d="M18.23,16.64a1.11,1.11,0,0,1,0,1.58h0a1.11,1.11,0,0,1-1.58,0L13,14.6,9.36,18.23a1.11,1.11,0,0,1-1.58,0h0a1.11,1.11,0,0,1,0-1.58L11.4,13,7.77,9.36a1.11,1.11,0,0,1,0-1.58h0a1.11,1.11,0,0,1,1.58,0L13,11.4l3.64-3.63a1.11,1.11,0,0,1,1.58,0h0a1.11,1.11,0,0,1,0,1.58L14.6,13Z"/></g></g></svg>